<svg fill="#000000" xmlns="http://www.w3.org/2000/svg"  viewBox="0 0 50 50" width="50px" height="50px"><path d="M 25 8 C 15.611 8 8 15.611 8 25 C 8 34.389 15.611 42 25 42 C 34.389 42 42 34.389 42 25 C 42 15.611 34.389 8 25 8 z M 25 9 C 33.837 9 41 16.163 41 25 C 41 33.837 33.837 41 25 41 C 16.163 41 9 33.837 9 25 C 9 16.163 16.163 9 25 9 z M 31.986328 18.306641 C 31.593984 18.261266 31.102031 18.367656 30.550781 18.566406 C 29.543781 18.929406 16.672687 24.394938 15.929688 24.710938 C 15.224688 25.010938 14.557641 25.337547 14.556641 25.810547 C 14.556641 26.142547 14.754828 26.329438 15.298828 26.523438 C 15.864828 26.725437 17.290813 27.158625 18.132812 27.390625 C 18.943813 27.614625 19.867766 27.418656 20.384766 27.097656 C 20.932766 26.756656 27.262797 22.521391 27.716797 22.150391 C 28.170797 21.779391 28.531156 22.255953 28.160156 22.626953 C 27.788156 22.998953 23.444094 27.214828 22.871094 27.798828 C 22.175094 28.507828 22.669719 29.243109 23.136719 29.537109 C 23.669719 29.873109 27.502078 32.442469 28.080078 32.855469 C 28.658078 33.267469 29.243297 33.455078 29.779297 33.455078 C 30.315297 33.455078 30.596281 32.748688 30.863281 31.929688 C 31.176281 30.970687 32.642266 21.407438 32.822266 19.523438 C 32.876266 18.953437 32.69675 18.573297 32.34375 18.404297 C 32.237 18.353047 32.117109 18.321766 31.986328 18.306641 z"/></svg>